<svg width="57" height="57" viewBox="0 0 57 57" fill="none" xmlns="http://www.w3.org/2000/svg">
<path d="M51.6006 33.8086C54.5492 21.0337 46.5834 8.28739 33.8085 5.33884C21.0337 2.3903 8.28736 10.3561 5.33881 23.1309C2.39027 35.9058 10.3561 48.6521 23.1309 51.6007C35.9058 54.5492 48.6521 46.5834 51.6006 33.8086Z" fill="black" stroke="white" stroke-width="0.5" stroke-miterlimit="10"/>
<path d="M11.0047 23.4123L16.175 28.5825V28.8046H15.7307L11.0047 24.0786V23.6344V23.4123ZM11.0047 24.6269L15.1778 28.7999H14.5114L11.0047 25.2932V24.6269ZM11.0047 25.884L13.9207 28.7999H13.2543L11 26.5456V25.884H11.0047ZM11.0047 27.1411L12.6683 28.8046H12.0019L11.0047 27.8074V27.1411ZM11.0047 28.3982L11.4112 28.8046H11.0047V28.3982ZM11.0378 22.8546C11.0614 22.7317 11.0756 22.6278 11.0756 22.5427C11.0756 22.4576 11.0898 22.3631 11.1134 22.2639L16.175 27.3254V27.9918L11.0378 22.8546ZM11.2221 21.7865C11.2458 21.6873 11.2694 21.5975 11.2977 21.5077C11.3214 21.4226 11.345 21.3423 11.3734 21.2667L16.175 26.0683V26.7346L11.2221 21.7865ZM11.742 20.3829L16.175 24.8159V25.4823L11.5199 20.8272L11.742 20.3829ZM11.9263 19.9765C12.0255 19.778 12.0964 19.6457 12.1484 19.57L16.175 23.5588V23.6344V24.2251L11.9263 19.9765ZM12.4083 19.2014C12.4556 19.1542 12.5029 19.0927 12.5359 19.0171C12.5738 18.9415 12.6163 18.8801 12.6635 18.8328L16.3923 22.5616C16.3687 22.6372 16.3451 22.7176 16.3167 22.8026C16.2931 22.8877 16.2647 22.968 16.2411 23.0436L12.4083 19.2014ZM12.9613 18.4973C13.0085 18.4216 13.1078 18.3129 13.2543 18.1664L16.9122 21.8243C16.8649 21.8763 16.813 21.9283 16.7657 21.9898C16.7184 22.0512 16.6665 22.1174 16.6192 22.193L12.9613 18.4973ZM13.552 17.8687C13.6276 17.8214 13.6938 17.7694 13.7552 17.7222C13.8167 17.6749 13.8734 17.6229 13.9207 17.5757L17.6495 21.3045C17.451 21.4037 17.3186 21.4793 17.243 21.5266L13.552 17.8687ZM14.2515 17.3158C14.3271 17.2685 14.3933 17.2212 14.4547 17.1882C14.5161 17.1503 14.5823 17.1078 14.6579 17.0606L18.6466 21.0446C18.4482 21.0446 18.2638 21.0824 18.0937 21.1533L14.2515 17.3158ZM19.2374 21.0446L15.0265 16.8337L15.4708 16.6116L19.9038 21.0446H19.2374ZM20.4945 21.0446L15.8772 16.4273C15.9528 16.38 16.0284 16.3469 16.1182 16.3327C16.2033 16.3186 16.2837 16.2902 16.3593 16.2382L21.1609 21.0446H20.4945ZM21.7516 21.0446L16.8035 16.1343C16.9264 16.087 17.1107 16.035 17.3564 15.9878L22.418 21.0446H21.7516ZM23.0087 21.0446L17.8716 15.9121C17.9708 15.9121 18.0701 15.9074 18.1693 15.8932C18.2686 15.8791 18.3773 15.8743 18.5001 15.8743L23.6704 21.0446H23.0087ZM23.9303 20.7515L19.0531 15.8743H19.7194L23.9303 20.0852V20.7515ZM23.9303 19.4944L20.3102 15.8743H20.9766L23.9303 18.8281V19.4944ZM23.9303 18.2373L21.5673 15.8743H22.2337L23.935 17.571V18.2373H23.9303ZM23.9303 16.9849L22.8244 15.8791H23.4908L23.9303 16.3186V16.9849ZM17.4226 36.1204L22.5928 41.2907H22.1864H21.9265L17.0162 36.3804V36.1204H17.4226ZM17.0162 36.9711L21.3357 41.2954H20.6694L17.0115 37.6375V36.9711H17.0162ZM17.0162 38.2282L20.0833 41.2954H19.417L17.0162 38.8946V38.2282ZM17.0162 39.4475L18.864 41.2954H18.1977L17.0162 40.1139V39.4475ZM17.0162 40.7046L17.6069 41.2954H17.0162V40.7046ZM18.6797 36.1204L23.7034 41.1442C23.6042 41.1678 23.5144 41.1867 23.4246 41.2009C23.3395 41.2151 23.2356 41.2198 23.1127 41.2198L18.0134 36.1204H18.6797ZM19.9368 36.1204L24.7006 40.8842C24.6014 40.9079 24.5116 40.9315 24.4218 40.9599C24.3367 40.9835 24.2564 41.0071 24.1808 41.0355L19.2705 36.1204H19.9368ZM21.1892 36.1204L25.5844 40.5156C25.4143 40.6149 25.2536 40.6763 25.1023 40.6999L20.5229 36.1204H21.1892ZM22.4085 36.1204L26.3594 40.0714C26.2838 40.1234 26.1515 40.1942 25.953 40.2935L21.7422 36.1204H22.1864H22.4085ZM22.9284 36.0117C23.0276 35.9881 23.1741 35.9267 23.3726 35.8274L27.1014 39.5562C27.0542 39.6035 26.988 39.6508 26.9171 39.6838C26.8415 39.7216 26.7801 39.7642 26.7328 39.8114L22.9284 36.0117ZM23.7413 35.6053C23.7885 35.5581 23.8452 35.5013 23.9067 35.4399C23.9681 35.3785 24.0248 35.3218 24.0721 35.2745L27.73 38.9324L27.3992 39.2632L23.7413 35.6053ZM24.332 34.9389C24.4076 34.8633 24.4927 34.731 24.5919 34.5325L28.3207 38.2613C28.2687 38.3606 28.1742 38.4834 28.023 38.6299L24.332 34.9389ZM24.7715 33.4644L28.8359 37.5288C28.7886 37.6044 28.7413 37.6706 28.7083 37.732C28.6705 37.7934 28.6279 37.8596 28.5807 37.9352L24.7006 34.093C24.7479 33.8472 24.7762 33.6629 24.7762 33.5401V33.4644H24.7715ZM24.8849 27.3348L29.9465 32.3964V33.0627L24.7715 27.8878V27.3348H24.8849ZM24.7715 28.4785L29.9417 33.6488C29.9417 33.748 29.9417 33.8472 29.9417 33.9465C29.9417 34.0457 29.9276 34.1544 29.9039 34.2773L24.7715 29.1402V28.4785ZM24.7715 29.7309L29.833 34.7924L29.7243 35.3454L24.7715 30.3973V29.7309ZM24.7715 30.9502L29.6109 35.7896C29.5637 35.8889 29.5306 35.9739 29.5164 36.0496C29.5022 36.1252 29.4739 36.2102 29.4219 36.3095L24.7668 31.6213V30.9502H24.7715ZM24.7715 32.2073L29.2754 36.7159L29.0533 37.1602L24.7715 32.8737V32.2073ZM26.1421 27.3348L29.9465 31.1393V31.8056L25.4757 27.3348H26.1421ZM27.3944 27.3348L29.9417 29.8821V30.5485L26.7281 27.3348H27.3944ZM28.6516 27.3348L29.9465 28.6298V29.2914L27.9899 27.3348H28.6516ZM29.9465 27.4057V28.0721L29.2092 27.3348H29.8756L29.9465 27.4057Z" fill="white"/>
<path d="M33.6753 16.0397V15.345L39.0676 20.7326V21.4273L33.6753 16.0397ZM33.6753 17.3488V16.6541L39.0676 22.0464V22.7412L33.6753 17.3488ZM39.0676 23.3555V24.0503L33.6753 18.6579V17.9632M33.6753 19.967V19.2723L39.0676 24.6599V25.3546L33.6753 19.967ZM33.6753 21.2383V20.5436L39.0676 25.9312V26.6259L33.6753 21.2383ZM33.6753 22.5474V21.8527L39.0676 27.2403V27.935L33.6753 22.5474ZM33.6753 23.8565V23.1618L39.0676 28.5541V29.2488L33.6753 23.8565ZM33.6753 25.1656V24.4709L39.0676 29.8585V30.5532L33.6753 25.1656ZM39.0676 31.8623V31.1676L33.6753 25.78V26.4747L39.0676 31.8623ZM33.6753 27.7838V27.0891L39.0676 32.4767V33.1714L33.6753 27.7838ZM33.6753 29.0503V28.3556L39.0676 33.7433V34.438L33.6753 29.0503ZM33.6753 30.3594V29.6647L39.0676 35.0523V35.7471L33.6753 30.3594ZM33.6753 31.6685V30.9738L39.0676 36.3614V37.0562L33.6753 31.6685ZM33.6753 32.9776V32.2829L39.0676 37.6705V38.3653L33.6753 32.9776ZM33.6753 34.2867V33.592L39.0676 38.9844V39.6791L33.6753 34.2867ZM33.6753 35.5958V34.9011L39.0676 40.2935V40.9882L33.6753 35.5958ZM33.6753 36.8671V36.1724L39.0676 41.5648V41.9476H38.7605L33.6753 36.8671ZM33.6753 38.1762V37.4815L38.1413 41.9476H37.4466L33.6753 38.1762ZM33.6753 39.4853V38.7906L36.8323 41.9476H36.1375L33.6753 39.4853ZM33.6753 40.7944V40.0997L35.5232 41.9476H34.8284L33.6753 40.7944ZM33.6753 41.9476V41.4088L34.2141 41.9476H33.6753ZM33.9447 15H34.6394L39.0676 19.4282V20.123L33.9447 15ZM35.2538 15H35.9485L39.0676 18.1191V18.8139L35.2538 15ZM36.5251 15H37.2198L39.0676 16.8479V17.5426L36.5251 15ZM37.8342 15H38.5289L39.0676 15.5388V16.2335L37.8342 15Z" fill="white"/>
<path d="M45.9109 30.7706L49.0206 27.642L49.0159 26.9473L45.2209 30.7753L45.9109 30.7706Z" fill="white"/>
<path d="M47.1823 30.7659L49.0254 28.9133L49.0207 28.2186L46.4875 30.7706L47.1823 30.7659Z" fill="white"/>
<path d="M48.4914 30.7611L49.0301 30.2224L49.0254 29.5276L47.7966 30.7659L48.4914 30.7611Z" fill="white"/>
<path d="M43.959 30.7801L44.6017 30.7753L49.0158 26.3329L49.0111 25.6382L43.959 30.7281V30.7801Z" fill="white"/>
<path d="M43.9496 27.4955L46.0432 25.383H45.3532L43.9448 26.8008L43.9496 27.4955Z" fill="white"/>
<path d="M43.9449 26.1864L44.7342 25.3877H44.0442L43.9402 25.4917L43.9449 26.1864Z" fill="white"/>
<path d="M43.9544 28.8046L47.3524 25.3782H46.6624L43.9497 28.1099L43.9544 28.8046Z" fill="white"/>
<path d="M43.9591 30.1137L48.6614 25.3735H47.9714L43.9543 29.419L43.9591 30.1137Z" fill="white"/>
</svg>
