<svg width="142" height="142" viewBox="0 0 142 142" fill="none" xmlns="http://www.w3.org/2000/svg">
<path d="M142 71.0065C142 110.226 110.214 142.013 70.9935 142.013C31.7864 142 0 110.214 0 71.0065C0 31.7864 31.7864 0 71.0065 0C110.214 0 142 31.7864 142 71.0065Z" fill="black"/>
<path d="M19.0129 56.972L33.1316 71.0907V71.6972H31.9185L19.0129 58.7916V57.5785V56.972ZM19.0129 60.2887L30.4085 71.6843H28.5888L19.0129 62.1084V60.2887ZM19.0129 63.7216L26.9756 71.6843H25.156L19 65.5284V63.7216H19.0129ZM19.0129 67.1545L23.5557 71.6972H21.736L19.0129 68.9741V67.1545ZM19.0129 70.5873L20.1228 71.6972H19.0129V70.5873ZM19.1032 55.4491C19.1678 55.1136 19.2065 54.8296 19.2065 54.5973C19.2065 54.365 19.2452 54.1069 19.3097 53.8359L33.1316 67.6578V69.4775L19.1032 55.4491ZM19.6066 52.5324C19.6711 52.2614 19.7356 52.0162 19.8131 51.771C19.8776 51.5387 19.9421 51.3193 20.0195 51.1128L33.1316 64.2249V66.0446L19.6066 52.5324ZM21.0262 48.6995L33.1316 60.8049V62.6246L20.4196 49.9126L21.0262 48.6995ZM21.5295 47.5896C21.8005 47.0476 21.9941 46.6862 22.1361 46.4797L33.1316 57.372V57.5785V59.1917L21.5295 47.5896ZM22.8459 45.4731C22.9749 45.344 23.104 45.1763 23.1943 44.9698C23.2976 44.7633 23.4137 44.5955 23.5428 44.4665L33.7253 54.649C33.6607 54.8554 33.5962 55.0748 33.5188 55.3071C33.4542 55.5394 33.3768 55.7588 33.3123 55.9653L22.8459 45.4731ZM24.3558 43.5502C24.4849 43.3437 24.7559 43.0468 25.156 42.6468L35.1449 52.6357C35.0158 52.7777 34.8739 52.9196 34.7448 53.0874C34.6157 53.2552 34.4738 53.4358 34.3447 53.6423L24.3558 43.5502ZM25.969 41.8337C26.1755 41.7047 26.3562 41.5627 26.5239 41.4337C26.6917 41.3046 26.8466 41.1626 26.9756 41.0336L37.1581 51.2161C36.6161 51.4871 36.2547 51.6936 36.0483 51.8226L25.969 41.8337ZM27.879 40.3238C28.0855 40.1947 28.2662 40.0657 28.434 39.9753C28.6017 39.8721 28.7824 39.7559 28.9889 39.6269L39.8812 50.5063C39.3392 50.5063 38.8359 50.6095 38.3713 50.8031L27.879 40.3238ZM41.4944 50.5063L29.9955 39.0074L31.2087 38.4008L43.3141 50.5063H41.4944ZM44.9273 50.5063L32.3186 37.8975C32.525 37.7685 32.7315 37.6781 32.9767 37.6394C33.209 37.6007 33.4284 37.5233 33.6349 37.3813L46.747 50.5063H44.9273ZM48.3602 50.5063L34.848 37.0974C35.1836 36.9683 35.6869 36.8264 36.358 36.6973L50.1799 50.5063H48.3602ZM51.7931 50.5063L37.7647 36.4908C38.0357 36.4908 38.3067 36.4779 38.5778 36.4392C38.8488 36.4005 39.1456 36.3876 39.4811 36.3876L53.5998 50.5063H51.7931ZM54.3096 49.7061L40.9911 36.3876H42.8108L54.3096 47.8864V49.7061ZM54.3096 46.2732L44.424 36.3876H46.2437L54.3096 44.4536V46.2732ZM54.3096 42.8404L47.8569 36.3876H49.6765L54.3226 41.0207V42.8404H54.3096ZM54.3096 39.4204L51.2768 36.4005H53.0965L54.3096 37.6007V39.4204ZM36.5387 91.6751L50.6574 105.794H49.5475H48.8377L35.4288 92.3849V91.6751H36.5387ZM35.4288 93.998L47.2245 105.807H45.4048L35.4159 95.8177V93.998H35.4288ZM35.4288 97.4309L43.8045 105.807H41.9848L35.4288 99.2506V97.4309ZM35.4288 100.761L40.4749 105.807H38.6552L35.4288 102.58V100.761ZM35.4288 104.193L37.042 105.807H35.4288V104.193ZM39.9716 91.6751L53.6902 105.394C53.4192 105.458 53.174 105.51 52.9287 105.549C52.6964 105.587 52.3996 105.6 52.077 105.6L38.1519 91.6751H39.9716ZM43.4044 91.6751L56.4133 104.684C56.1422 104.748 55.897 104.813 55.6518 104.89C55.4195 104.955 55.2001 105.019 54.9936 105.097L41.5847 91.6751H43.4044ZM46.8244 91.6751L58.8266 103.677C58.362 103.948 57.9232 104.116 57.5102 104.181L45.0047 91.6751H46.8244ZM50.154 91.6751L60.9431 102.464C60.7366 102.606 60.3753 102.8 59.8332 103.071L48.3344 91.6751H49.5475H50.154ZM51.5737 91.3782C51.8447 91.3137 52.2448 91.1459 52.7868 90.8749L62.9693 101.057C62.8402 101.186 62.6595 101.316 62.466 101.406C62.2595 101.509 62.0917 101.625 61.9627 101.754L51.5737 91.3782ZM53.7934 90.2683C53.9225 90.1393 54.0773 89.9844 54.2451 89.8166C54.4129 89.6489 54.5678 89.494 54.6968 89.365L64.6857 99.3539L63.7823 100.257L53.7934 90.2683ZM55.4066 88.4487C55.6131 88.2422 55.8454 87.8808 56.1164 87.3388L66.2989 97.5213C66.157 97.7923 65.8988 98.1278 65.4859 98.5279L55.4066 88.4487ZM56.6068 84.4221L67.7056 95.5209C67.5766 95.7274 67.4475 95.9081 67.3572 96.0758C67.2539 96.2436 67.1378 96.4243 67.0087 96.6308L56.4133 86.1386C56.5423 85.4675 56.6197 84.9641 56.6197 84.6286V84.4221H56.6068ZM56.9166 67.6836L70.7384 81.5055V83.3251L56.6068 69.1935V67.6836H56.9166ZM56.6068 70.8067L70.7255 84.9254C70.7255 85.1964 70.7255 85.4675 70.7255 85.7385C70.7255 86.0095 70.6868 86.3063 70.6223 86.6419L56.6068 72.6135V70.8067ZM56.6068 74.2267L70.4287 88.0486L70.1319 89.5585L56.6068 76.0464V74.2267ZM56.6068 77.5564L69.8221 90.7717C69.6931 91.0427 69.6027 91.275 69.564 91.4815C69.5253 91.688 69.4479 91.9203 69.3059 92.1913L56.5939 79.3889V77.5564H56.6068ZM56.6068 80.9892L68.9058 93.3012L68.2993 94.5143L56.6068 82.8089V80.9892ZM60.3495 67.6836L70.7384 78.0726V79.8923L58.5298 67.6836H60.3495ZM63.7694 67.6836L70.7255 74.6397V76.4594L61.9497 67.6836H63.7694ZM67.2023 67.6836L70.7384 71.2197V73.0265L65.3955 67.6836H67.2023ZM70.7384 67.8772V69.6969L68.7252 67.6836H70.5449L70.7384 67.8772Z" fill="white"/>
<path d="M80.9209 36.8392V34.9421L95.6462 49.6545V51.5516L80.9209 36.8392ZM80.9209 40.4141V38.5169L95.6462 53.2422V55.1393L80.9209 40.4141ZM95.6462 56.817V58.7142L80.9209 43.9889V42.0918M80.9209 47.5638V45.6666L95.6462 60.379V62.2761L80.9209 47.5638ZM80.9209 51.0354V49.1382L95.6462 63.8506V65.7477L80.9209 51.0354ZM80.9209 54.6102V52.7131L95.6462 67.4254V69.3225L80.9209 54.6102ZM80.9209 58.185V56.2879L95.6462 71.0132V72.9103L80.9209 58.185ZM80.9209 61.7599V59.8628L95.6462 74.5751V76.4722L80.9209 61.7599ZM95.6462 80.0471V78.15L80.9209 63.4376V65.3347L95.6462 80.0471ZM80.9209 68.9096V67.0125L95.6462 81.7248V83.6219L80.9209 68.9096ZM80.9209 72.3683V70.4711L95.6462 85.1835V87.0806L80.9209 72.3683ZM80.9209 75.9431V74.046L95.6462 88.7583V90.6555L80.9209 75.9431ZM80.9209 79.5179V77.6208L95.6462 92.3332V94.2303L80.9209 79.5179ZM80.9209 83.0928V81.1957L95.6462 95.908V97.8051L80.9209 83.0928ZM80.9209 86.6676V84.7705L95.6462 99.4958V101.393L80.9209 86.6676ZM80.9209 90.2425V88.3454L95.6462 103.071V104.968L80.9209 90.2425ZM80.9209 93.7141V91.817L95.6462 106.542V107.588H94.8073L80.9209 93.7141ZM80.9209 97.2889V95.3918L93.1167 107.588H91.2196L80.9209 97.2889ZM80.9209 100.864V98.9666L89.5419 107.588H87.6447L80.9209 100.864ZM80.9209 104.439V102.541L85.967 107.588H84.0699L80.9209 104.439ZM80.9209 107.588V106.116L82.3922 107.588H80.9209ZM81.6566 34H83.5537L95.6462 46.0925V47.9896L81.6566 34ZM85.2314 34H87.1285L95.6462 42.5177V44.4148L85.2314 34ZM88.703 34H90.6001L95.6462 39.0461V40.9432L88.703 34ZM92.2778 34H94.175L95.6462 35.4712V37.3684L92.2778 34Z" fill="white"/>
<path d="M114.333 77.066L122.825 68.5225L122.812 66.6254L112.449 77.0789L114.333 77.066Z" fill="white"/>
<path d="M117.805 77.053L122.838 71.994L122.825 70.0969L115.908 77.0659L117.805 77.053Z" fill="white"/>
<path d="M121.38 77.0401L122.851 75.5689L122.838 73.6718L119.483 77.053L121.38 77.0401Z" fill="white"/>
<path d="M109.003 77.0917L110.759 77.0788L122.812 64.9475L122.8 63.0504L109.003 76.9497V77.0917Z" fill="white"/>
<path d="M108.978 68.1223L114.695 62.3535H112.811L108.965 66.2252L108.978 68.1223Z" fill="white"/>
<path d="M108.965 64.5475L111.12 62.3665H109.236L108.952 62.6504L108.965 64.5475Z" fill="white"/>
<path d="M108.991 71.6972L118.27 62.3407H116.385L108.978 69.8001L108.991 71.6972Z" fill="white"/>
<path d="M109.003 75.272L121.845 62.3278H119.96L108.991 73.3749L109.003 75.272Z" fill="white"/>
</svg>
